# xmcd
#
# Track frame offsets: 
#        150
#        15341
#        34130
#        50515
#        68514
#        87534
#        103394
#        119835
#        140903
#        162485
#        188659
#
# Disc length: 2730 seconds
#
# Revision: 8
# Processed by: cddbd v1.5.2PL0 Copyright (c) Steve Scherf et al.
# Submitted via: ExactAudioCopy v0.99pb5
#
DISCID=9f0aa80b
DTITLE=Amorphis - Eclipse
DYEAR=2006
DGENRE=Metal
TTITLE0=Two Moons
TTITLE1=House Of Sleep
TTITLE2=Leaves Scar
TTITLE3=Born From Fire
TTITLE4=Under A Soil And Black Stone
TTITLE5=Perkele (The God Of Fire)
TTITLE6=The Smoke
TTITLE7=Same Flesh
TTITLE8=Brother Moon
TTITLE9=Empty Opening
TTITLE10=Stone Woman (Bonus Track)
EXTD=
EXTT0=
EXTT1=
EXTT2=
EXTT3=
EXTT4=
EXTT5=
EXTT6=
EXTT7=
EXTT8=
EXTT9=
EXTT10=
PLAYORDER=
